# xmcd
#
# Track frame offsets:
#	150
#	15372
#	29692
#	49000
#	64335
#	81717
#	96855
#	123365
#	138865
#	155807
#	176787
#	192152
#
# Disc length: 2747 seconds
#
# Revision: 1
# Processed by: cddbd v1.5.2PL0 Copyright (c) Steve Scherf et al.
# Submitted via: audiograbber 1.83.01
#
DISCID=a80ab90c
DTITLE=Trin-I-Tee 5:7 - T57
DYEAR=2007
DGENRE=R&B
TTITLE0=Listen
TTITLE1=I need you
TTITLE2=I will lift
TTITLE3=Reflection
TTITLE4=Love
TTITLE5=God´s triangle
TTITLE6=Soul is anchored
TTITLE7=I still love you
TTITLE8=I want to go back
TTITLE9=U saved me
TTITLE10=Like U
TTITLE11=Beautiful girl
EXTD=
EXTT0=
EXTT1=
EXTT2=
EXTT3=
EXTT4=
EXTT5=
EXTT6=
EXTT7=
EXTT8=
EXTT9=
EXTT10=
EXTT11=
PLAYORDER=
